<?xml version="1.0" encoding="UTF-8" standalone="no"?>
<svg
   xmlns:dc="http://purl.org/dc/elements/1.1/"
   xmlns:cc="http://creativecommons.org/ns#"
   xmlns:rdf="http://www.w3.org/1999/02/22-rdf-syntax-ns#"
   xmlns:svg="http://www.w3.org/2000/svg"
   xmlns="http://www.w3.org/2000/svg"
   xmlns:sodipodi="http://sodipodi.sourceforge.net/DTD/sodipodi-0.dtd"
   xmlns:inkscape="http://www.inkscape.org/namespaces/inkscape"
   id="Bold"
   enable-background="new 0 0 24 24"
   height="512"
   viewBox="0 0 24 24"
   width="512"
   version="1.1"
   sodipodi:docname="instagram_w.svg"
   inkscape:version="1.0.2-2 (e86c870879, 2021-01-15)">
  <metadata
     id="metadata13">
    <rdf:RDF>
      <cc:Work
         rdf:about="">
        <dc:format>image/svg+xml</dc:format>
        <dc:type
           rdf:resource="http://purl.org/dc/dcmitype/StillImage" />
      </cc:Work>
    </rdf:RDF>
  </metadata>
  <defs
     id="defs11" />
  <sodipodi:namedview
     pagecolor="#ffffff"
     bordercolor="#666666"
     borderopacity="1"
     objecttolerance="10"
     gridtolerance="10"
     guidetolerance="10"
     inkscape:pageopacity="0"
     inkscape:pageshadow="2"
     inkscape:window-width="1920"
     inkscape:window-height="1017"
     id="namedview9"
     showgrid="false"
     inkscape:zoom="1.6601562"
     inkscape:cx="256"
     inkscape:cy="256"
     inkscape:window-x="-8"
     inkscape:window-y="-8"
     inkscape:window-maximized="1"
     inkscape:current-layer="Bold" />
  <path
     d="m12.004 5.838c-3.403 0-6.158 2.758-6.158 6.158 0 3.403 2.758 6.158 6.158 6.158 3.403 0 6.158-2.758 6.158-6.158 0-3.403-2.758-6.158-6.158-6.158zm0 10.155c-2.209 0-3.997-1.789-3.997-3.997s1.789-3.997 3.997-3.997 3.997 1.789 3.997 3.997c.001 2.208-1.788 3.997-3.997 3.997z"
     id="path2" />
  <path
     d="m16.948.076c-2.208-.103-7.677-.098-9.887 0-1.942.091-3.655.56-5.036 1.941-2.308 2.308-2.013 5.418-2.013 9.979 0 4.668-.26 7.706 2.013 9.979 2.317 2.316 5.472 2.013 9.979 2.013 4.624 0 6.22.003 7.855-.63 2.223-.863 3.901-2.85 4.065-6.419.104-2.209.098-7.677 0-9.887-.198-4.213-2.459-6.768-6.976-6.976zm3.495 20.372c-1.513 1.513-3.612 1.378-8.468 1.378-5 0-7.005.074-8.468-1.393-1.685-1.677-1.38-4.37-1.38-8.453 0-5.525-.567-9.504 4.978-9.788 1.274-.045 1.649-.06 4.856-.06l.045.03c5.329 0 9.51-.558 9.761 4.986.057 1.265.07 1.645.07 4.847-.001 4.942.093 6.959-1.394 8.453z"
     id="path4" />
  <circle
     cx="18.406"
     cy="5.595"
     r="1.439"
     id="circle6" />
  <path
     style="fill:#ffffff;stroke-width:0.602353"
     d="M 173.77882,511.3114 C 129.21506,510.24982 100.78775,504.7164 76.498824,492.37568 63.00207,485.51826 52.055723,477.37348 41.508765,466.34084 18.710155,442.49237 7.0143313,413.9112 2.7606399,371.65176 0.88056115,352.97362 0.61571325,338.62325 0.59283986,254.19294 0.57070026,172.47121 0.80468576,158.26304 2.4478372,141.55294 6.9374482,95.895654 19.589807,66.641607 45.84143,41.220789 69.884916,17.938224 100.49013,5.724513 143.05882,2.4239627 175.36279,-0.08071546 336.54388,-0.08320389 368.94118,2.4204754 445.5334,8.339562 492.00047,47.143311 505.97702,116.85647 c 4.65471,23.21704 5.09356,35.2102 5.1026,139.44471 0.009,99.04262 -0.34536,110.9756 -3.92163,132.21647 -9.50499,56.45365 -40.57956,95.00814 -90.02858,111.69924 -20.24632,6.83396 -39.83792,9.44534 -79.20941,10.55785 -25.28867,0.71458 -140.81634,1.0923 -164.14118,0.53666 z m 154.50353,-45.68071 c 24.73842,-0.5672 35.84946,-1.21454 47.58589,-2.7724 29.75427,-3.9495 49.15569,-13.1682 64.30948,-30.55703 13.14214,-15.08048 20.12654,-33.45784 23.27905,-61.25185 2.23163,-19.67505 2.46349,-30.38451 2.45176,-113.24235 C 465.89685,175.3714 465.5036,155.997 463.48158,138.24 459.02996,99.146836 443.95588,74.666514 415.62353,60.518496 402.12297,53.776871 385.36837,49.771279 359.00235,46.981843 348.89354,45.912364 211.28261,44.954921 179.1488,45.730492 c -30.70684,0.74113 -38.83588,1.242976 -49.94444,3.083321 -39.214264,6.496589 -62.929683,24.621197 -74.06137,56.601697 -5.100302,14.6528 -7.731485,29.38968 -9.40965,52.70214 -0.891634,12.38626 -1.313655,170.48505 -0.504878,189.13882 1.461861,33.7166 6.35396,55.13067 16.508637,72.26289 13.201498,22.27258 33.594446,35.73002 62.490351,41.23778 19.60259,3.73639 31.77031,4.38775 90.2102,4.8291 82.06896,0.61981 88.63815,0.62238 113.8447,0.0445 z"
     id="path15"
     transform="scale(0.046875)" />
  <path
     style="fill:#ffffff;stroke-width:0.602353"
     d="m 236.88398,385.48829 c -45.9808,-6.95911 -84.62529,-37.37992 -102.19241,-80.44554 -3.21362,-7.87815 -5.93968,-17.2724 -7.67669,-26.45451 -1.59479,-8.43034 -2.20323,-27.96354 -1.15582,-37.10588 5.04757,-44.05767 31.85513,-82.55158 71.41153,-102.54231 18.65116,-9.4258 37.41298,-13.86078 58.72941,-13.88266 36.10058,-0.0371 69.01998,13.92729 94.13659,39.93256 19.52425,20.21505 31.35182,44.25699 35.7348,72.63829 1.39664,9.04366 1.3824,27.68916 -0.0281,36.74352 -1.33734,8.58503 -4.54234,21.04444 -7.14908,27.79199 -17.54925,45.42632 -57.75924,77.21864 -105.82837,83.67396 -9.05831,1.21646 -26.77227,1.04445 -35.9819,-0.34942 z m 34.7772,-45.46809 c 17.7825,-3.35997 32.72065,-11.30587 45.4427,-24.17189 11.6263,-11.75788 19.37943,-26.42631 23.03712,-43.58478 1.52254,-7.14235 1.52136,-25.17272 -0.002,-32.73142 -6.89099,-34.1904 -33.4803,-60.77971 -67.6707,-67.67098 -7.5587,-1.52349 -25.58907,-1.52467 -32.73142,-0.002 -19.41358,4.13841 -35.25266,13.29598 -48.11965,27.821 -9.87386,11.1462 -16.70741,25.25536 -19.69246,40.65882 -1.50653,7.77405 -1.51912,23.40972 -0.025,30.99933 1.57349,7.99249 4.33752,16.09315 7.92032,23.21244 13.06499,25.9611 38.52141,43.39571 68.04851,46.60513 4.59809,0.49978 18.70007,-0.17324 23.79294,-1.13552 z"
     id="path17"
     transform="scale(0.046875)" />
  <path
     style="fill:#ffffff;stroke-width:0.602353"
     d="m 388.12412,149.33819 c -22.5639,-3.85509 -33.32213,-29.8458 -19.79373,-47.81953 5.95247,-7.908409 14.64005,-12.370425 24.08533,-12.370425 8.6948,0 16.18928,3.217338 22.02416,9.454849 5.79049,6.190046 8.41188,12.629196 8.41188,20.662796 0,18.41515 -16.9661,33.1069 -34.72764,30.07231 z"
     id="path19"
     transform="scale(0.046875)" />
</svg>
