<?xml version="1.0" encoding="UTF-8" standalone="no"?>
<svg
   xmlns:dc="http://purl.org/dc/elements/1.1/"
   xmlns:cc="http://creativecommons.org/ns#"
   xmlns:rdf="http://www.w3.org/1999/02/22-rdf-syntax-ns#"
   xmlns:svg="http://www.w3.org/2000/svg"
   xmlns="http://www.w3.org/2000/svg"
   xmlns:sodipodi="http://sodipodi.sourceforge.net/DTD/sodipodi-0.dtd"
   xmlns:inkscape="http://www.inkscape.org/namespaces/inkscape"
   width="24"
   height="24"
   viewBox="0 0 24 24"
   version="1.1"
   id="svg4"
   sodipodi:docname="twitch_w.svg"
   inkscape:version="1.0.2-2 (e86c870879, 2021-01-15)">
  <metadata
     id="metadata10">
    <rdf:RDF>
      <cc:Work
         rdf:about="">
        <dc:format>image/svg+xml</dc:format>
        <dc:type
           rdf:resource="http://purl.org/dc/dcmitype/StillImage" />
      </cc:Work>
    </rdf:RDF>
  </metadata>
  <defs
     id="defs8" />
  <sodipodi:namedview
     pagecolor="#ffffff"
     bordercolor="#666666"
     borderopacity="1"
     objecttolerance="10"
     gridtolerance="10"
     guidetolerance="10"
     inkscape:pageopacity="0"
     inkscape:pageshadow="2"
     inkscape:window-width="1920"
     inkscape:window-height="1017"
     id="namedview6"
     showgrid="false"
     inkscape:zoom="35.416667"
     inkscape:cx="12"
     inkscape:cy="12"
     inkscape:window-x="-8"
     inkscape:window-y="-8"
     inkscape:window-maximized="1"
     inkscape:current-layer="svg4" />
  <path
     d="M2.149 0l-1.612 4.119v16.836h5.731v3.045h3.224l3.045-3.045h4.657l6.269-6.269v-14.686h-21.314zm19.164 13.612l-3.582 3.582h-5.731l-3.045 3.045v-3.045h-4.836v-15.045h17.194v11.463zm-3.582-7.343v6.262h-2.149v-6.262h2.149zm-5.731 0v6.262h-2.149v-6.262h2.149z"
     fill-rule="evenodd"
     clip-rule="evenodd"
     id="path2" />
  <path
     style="fill:#ffffff;stroke-width:0.0282353"
     d="M 6.2682353,22.475294 V 20.950588 H 3.4164706 0.56470588 L 0.56589846,12.515294 0.56709104,4.08 1.3646152,2.0470588 2.1621393,0.01411765 12.798717,0.00702172 23.435294,-7.4204329e-5 V 7.348246 v 7.34832 l -3.127106,3.127011 -3.127106,3.127011 H 14.851619 12.522157 L 10.997647,22.475294 9.4731371,24 H 7.8706862 6.2682353 Z m 8.6117787,-5.28 h 2.865703 l 1.785965,-1.785799 1.785965,-1.785799 V 7.8847892 2.1458824 H 12.705882 4.0941176 v 7.5247058 7.5247058 h 2.4282353 2.4282353 v 1.531668 1.531667 l 1.5318608,-1.531667 1.531861,-1.531668 z"
     id="path12" />
  <path
     style="fill:#ffffff;stroke-width:0.0282353"
     d="m 9.8541176,9.3882353 v -3.12 H 10.927059 12 v 3.12 3.1199997 H 10.927059 9.8541176 Z"
     id="path14" />
  <path
     style="fill:#ffffff;stroke-width:0.0282353"
     d="m 15.585882,9.3882353 v -3.12 h 1.058824 1.058823 v 3.12 3.1199997 h -1.058823 -1.058824 z"
     id="path16" />
</svg>
